<svg width="20" height="20" viewBox="0 0 20 20" fill="none" xmlns="http://www.w3.org/2000/svg">
<path d="M2.5 18.3333L1.78089 18.1203C1.71368 18.3472 1.75748 18.5925 1.89906 18.7821C2.04063 18.9717 2.26338 19.0833 2.5 19.0833L2.5 18.3333ZM17.5 18.3333V19.0833C17.7366 19.0833 17.9594 18.9717 18.1009 18.7821C18.2425 18.5925 18.2863 18.3472 18.2191 18.1203L17.5 18.3333ZM13.4167 5.83332C13.4167 7.7203 11.887 9.24999 10 9.24999V10.75C12.7154 10.75 14.9167 8.54872 14.9167 5.83332H13.4167ZM10 9.24999C8.11303 9.24999 6.58333 7.7203 6.58333 5.83332H5.08333C5.08333 8.54872 7.2846 10.75 10 10.75V9.24999ZM6.58333 5.83332C6.58333 3.94635 8.11303 2.41666 10 2.41666V0.916656C7.2846 0.916656 5.08333 3.11792 5.08333 5.83332H6.58333ZM10 2.41666C11.887 2.41666 13.4167 3.94635 13.4167 5.83332H14.9167C14.9167 3.11792 12.7154 0.916656 10 0.916656V2.41666ZM3.21911 18.5464C4.13629 15.4502 6.84667 13.25 10 13.25V11.75C6.11463 11.75 2.86681 14.4546 1.78089 18.1203L3.21911 18.5464ZM10 13.25C13.1533 13.25 15.8637 15.4502 16.7809 18.5464L18.2191 18.1203C17.1332 14.4546 13.8854 11.75 10 11.75V13.25ZM2.5 19.0833H17.5V17.5833H2.5V19.0833Z" fill="#6EABF2"/>
</svg>
