<svg width="200" height="181" viewBox="0 0 200 181" fill="none" xmlns="http://www.w3.org/2000/svg">
<path fill-rule="evenodd" clip-rule="evenodd" d="M133.171 74.9948C134.083 76.0686 134.551 77.4508 134.479 78.8588C134.407 80.2667 133.801 81.594 132.786 82.5693L92.2918 120.553C90.9956 121.677 89.312 122.249 87.6008 122.146C85.8896 122.042 84.2866 121.272 83.1345 120L66.5896 105.184C65.4924 104.209 64.8266 102.837 64.7387 101.37C64.6508 99.9031 65.148 98.4612 66.121 97.3616C67.0939 96.2619 68.4628 95.5947 69.9266 95.5066C71.3904 95.4185 72.8292 95.9168 73.9264 96.8919L88.6553 109.385L125.504 74.5604C126.588 73.6202 127.994 73.1398 129.426 73.2209C130.857 73.302 132.2 73.9382 133.171 74.9948V74.9948Z" fill="#4FBF67"/>
<path fill-rule="evenodd" clip-rule="evenodd" d="M99.6879 45.8076C89.8687 45.8076 80.27 48.7258 72.1056 54.193C63.9413 59.6603 57.5779 67.4312 53.8203 76.5229C50.0626 85.6147 49.0795 95.619 50.9951 105.271C52.9107 114.922 57.6391 123.788 64.5824 130.747C71.5256 137.705 80.3718 142.444 90.0023 144.364C99.6328 146.284 109.615 145.298 118.687 141.532C127.759 137.767 135.512 131.389 140.968 123.207C146.423 115.024 149.335 105.405 149.335 95.5638C149.335 82.3676 144.104 69.712 134.793 60.3809C125.483 51.0498 112.855 45.8076 99.6879 45.8076V45.8076ZM39.0083 95.5638C39.0083 83.536 42.5671 71.7784 49.2347 61.7777C55.9022 51.777 65.3791 43.9824 76.4668 39.3796C87.5546 34.7768 99.7552 33.5725 111.526 35.919C123.297 38.2655 134.109 44.0574 142.595 52.5623C151.081 61.0672 156.86 71.9031 159.202 83.6997C161.543 95.4963 160.341 107.724 155.749 118.836C151.156 129.948 143.378 139.446 133.4 146.128C123.421 152.81 111.689 156.377 99.6879 156.377C83.5947 156.377 68.1606 149.97 56.7809 138.565C45.4013 127.161 39.0083 111.692 39.0083 95.5638V95.5638Z" fill="#4FBF67"/>
<path d="M16.3768 149.741C14.629 143.539 6.58569 144.141 6.58569 144.141L6.8024 148.454C11.4509 147.65 14.3408 153.111 14.3408 153.111L16.3768 149.741Z" fill="#E0E0E0"/>
<path d="M157.764 47.3432C167.093 50.1754 172.898 39.393 172.898 39.393L167.222 36.1514C164.447 42.7572 155.13 41.9927 155.13 41.9927L157.764 47.3432Z" fill="#E0E0E0"/>
<path d="M199.999 124.078C198.195 118.922 191.419 119.857 191.419 119.857L191.833 123.495C195.726 122.568 198.458 127.037 198.458 127.037L199.999 124.078Z" fill="#E0E0E0"/>
<path d="M75.1766 4.28847C73.3714 -0.867635 66.5969 0.0662877 66.5969 0.0662877L67.0108 3.70531C70.903 2.77899 73.6347 7.2466 73.6347 7.2466L75.1766 4.28847Z" fill="#E0E0E0"/>
<path d="M126.104 178.041C124.299 172.885 117.525 173.819 117.525 173.819L117.939 177.458C121.831 176.531 124.562 180.999 124.562 180.999L126.104 178.041Z" fill="#E0E0E0"/>
<path d="M8.57966 71.4481C6.77444 66.2909 0 67.2259 0 67.2259L0.413909 70.8639C4.30607 69.9386 7.03882 74.4063 7.03882 74.4063L8.57966 71.4481Z" fill="#EBEBEB"/>
<path d="M12.5174 18.9C7.13642 19.785 6.87744 26.633 6.87744 26.633L10.5247 26.8567C10.2918 22.855 15.157 20.935 15.157 20.935L12.5174 18.9Z" fill="#EBEBEB"/>
<path d="M191.202 19.2355C187.565 21.655 189.624 26.7406 189.624 26.7406L192.36 25.7013C190.875 22.8561 193.797 19.8502 193.797 19.8502L191.202 19.2355Z" fill="#EBEBEB"/>
<path d="M187.302 148.506C185.555 142.304 177.512 142.906 177.512 142.906L177.728 147.219C182.378 146.417 185.268 151.877 185.268 151.877L187.302 148.506Z" fill="#4FBF67"/>
<path d="M133.559 15.3065C136.207 22.0699 145.163 20.4974 145.163 20.4974L144.437 15.6834C139.31 17.1049 135.462 11.2994 135.462 11.2994L133.559 15.3065Z" fill="#4FBF67"/>
<path d="M17.2534 94.5746C12.9116 95.0372 12.3926 100.5 12.3926 100.5L15.2987 100.845C15.2987 97.6348 19.2721 96.3219 19.2721 96.3219L17.2534 94.5746Z" fill="#4FBF67"/>
<path d="M49.7603 162.99C45.4184 163.452 44.8994 168.915 44.8994 168.915L47.8055 169.26C47.8055 166.05 51.779 164.737 51.779 164.737L49.7603 162.99Z" fill="#4FBF67"/>
<path d="M47.1991 39.09C47.8297 34.7592 42.6784 32.9001 42.6784 32.9001L41.623 35.6345C44.7264 36.4272 45.0092 40.6136 45.0092 40.6136L47.1991 39.09Z" fill="#4FBF67"/>
<path d="M190.579 72.7838C194.938 73.0325 196.333 67.7266 196.333 67.7266L193.522 66.9132C193.007 70.0831 188.87 70.7314 188.87 70.7314L190.579 72.7838Z" fill="#4FBF67"/>
</svg>
