<svg width="22" height="22" viewBox="0 0 22 22" fill="none" xmlns="http://www.w3.org/2000/svg">
<path d="M10.0834 2.75L7.41671 2.75C6.86442 2.75 6.41671 3.19771 6.41671 3.75L6.41671 18.25C6.41671 18.8023 6.86442 19.25 7.41671 19.25L14.5834 19.25C15.1357 19.25 15.5834 18.8023 15.5834 18.25L15.5834 3.75C15.5834 3.19772 15.1357 2.75 14.5834 2.75L11.9167 2.75M10.0834 2.75L10.0834 3.56667C10.0834 3.6219 10.1281 3.66667 10.1834 3.66667L11.8167 3.66667C11.8719 3.66667 11.9167 3.6219 11.9167 3.56667L11.9167 2.75M10.0834 2.75L11.9167 2.75" stroke="#6EABF2" stroke-width="1.5"/>
</svg>
