<svg width="14" height="17" viewBox="0 0 14 17" fill="none" xmlns="http://www.w3.org/2000/svg">
<path fill-rule="evenodd" clip-rule="evenodd" d="M11.6667 7.28571C12.2855 7.28571 12.879 7.54158 13.3166 7.99703C13.7542 8.45247 14 9.07019 14 9.71429V14.5714C14 15.2155 13.7542 15.8332 13.3166 16.2887C12.879 16.7441 12.2855 17 11.6667 17H2.33333C1.71449 17 1.121 16.7441 0.683418 16.2887C0.245833 15.8332 0 15.2155 0 14.5714V9.71429C0 9.07019 0.245833 8.45247 0.683418 7.99703C1.121 7.54158 1.71449 7.28571 2.33333 7.28571V4.85714C2.33333 3.56895 2.825 2.33352 3.70017 1.42262C4.57534 0.511733 5.76232 0 7 0C8.23768 0 9.42466 0.511733 10.2998 1.42262C11.175 2.33352 11.6667 3.56895 11.6667 4.85714V7.28571ZM7 1.61905C7.82512 1.61905 8.61644 1.9602 9.19989 2.56746C9.78333 3.17472 10.1111 3.99835 10.1111 4.85714V7.28571H3.88889V4.85714C3.88889 3.99835 4.21667 3.17472 4.80011 2.56746C5.38356 1.9602 6.17488 1.61905 7 1.61905ZM11.6667 8.90476H2.33333C2.12705 8.90476 1.92922 8.99005 1.78336 9.14187C1.6375 9.29368 1.55556 9.49959 1.55556 9.71429V14.5714C1.55556 14.7861 1.6375 14.992 1.78336 15.1438C1.92922 15.2957 2.12705 15.381 2.33333 15.381H11.6667C11.8729 15.381 12.0708 15.2957 12.2166 15.1438C12.3625 14.992 12.4444 14.7861 12.4444 14.5714V9.71429C12.4444 9.49959 12.3625 9.29368 12.2166 9.14187C12.0708 8.99005 11.8729 8.90476 11.6667 8.90476Z" fill="#6EABF2"/>
</svg>
