<svg width="245" height="148" viewBox="0 0 245 148" fill="none" xmlns="http://www.w3.org/2000/svg">
<g clip-path="url(#clip0_2_1193)">
<path d="M166.678 84.4894L168.779 84.125C168.981 84.0896 169.181 84.0464 169.382 84.0098C166.057 81.9393 163.533 78.7958 162.224 75.0957C160.915 71.3957 160.9 67.3592 162.181 63.6494C163.462 59.9396 165.963 56.7773 169.273 54.6818C172.582 52.5864 176.504 51.6826 180.393 52.1189L177.64 58.6917L184.163 52.9774C184.179 52.9812 184.194 52.9862 184.208 52.9923C186.344 53.7471 188.311 54.9166 189.997 56.434C191.683 57.9514 193.054 59.7871 194.033 61.8361C195.011 63.8852 195.578 66.1075 195.7 68.3763C195.822 70.645 195.498 72.9157 194.745 75.0586C194.636 75.3703 194.506 75.6678 194.382 75.969C196.223 75.0407 197.99 73.9601 199.431 72.5764C202.348 69.7725 203.946 65.9033 205.732 61.1364C209.27 51.69 212.677 42.1068 215.947 32.5028C212.34 30.5446 209.547 27.3603 208.07 23.5219C206.592 19.6835 206.528 15.4425 207.888 11.5606C208.063 11.0612 208.266 10.5803 208.481 10.108C208.535 9.9898 208.589 9.87235 208.645 9.75584C208.864 9.30303 209.095 8.85937 209.348 8.43359C209.39 8.36379 209.436 8.29847 209.478 8.22942C209.699 7.87042 209.931 7.52205 210.176 7.1843C210.267 7.0575 210.358 6.93104 210.452 6.80724C210.729 6.44358 211.017 6.08971 211.319 5.75188C211.42 5.63885 211.528 5.53323 211.632 5.42311C211.864 5.17692 212.103 4.93816 212.349 4.70683C212.478 4.58505 212.606 4.46239 212.739 4.34492C212.773 4.31478 212.805 4.28189 212.839 4.252C212.841 4.2542 212.842 4.25657 212.844 4.25875C215.881 1.60309 219.751 0.0991829 223.779 0.00839995C227.808 -0.082383 231.74 1.2457 234.894 3.76182L231.311 12.3152L237.761 6.66888C240.018 9.55363 241.297 13.0864 241.412 16.7519C241.526 20.4173 240.47 24.0236 238.398 27.0447C238.404 27.0468 238.41 27.0484 238.416 27.0505C238.346 27.1543 238.266 27.2493 238.193 27.3513C238.057 27.5427 237.918 27.7307 237.776 27.9152C237.592 28.1519 237.402 28.3807 237.208 28.6063C237.061 28.7766 236.917 28.9483 236.764 29.1122C236.541 29.3518 236.307 29.5788 236.071 29.8044C235.934 29.936 235.802 30.0743 235.661 30.2011C235.29 30.5333 234.906 30.8485 234.51 31.1468C234.371 31.2512 234.224 31.3434 234.082 31.4434C233.804 31.6398 233.524 31.8332 233.236 32.0125C233.056 32.1236 232.872 32.2252 232.689 32.3297C232.424 32.4811 232.157 32.6277 231.885 32.7647C231.692 32.8619 231.497 32.954 231.301 33.0439C231.021 33.1717 230.738 33.2903 230.452 33.4032C230.26 33.4788 230.069 33.5555 229.874 33.6243C229.553 33.7378 229.227 33.8364 228.899 33.9308C228.734 33.9785 228.571 34.0331 228.404 34.0758C227.912 34.2016 227.415 34.3087 226.911 34.3908C226.817 34.4063 226.72 34.4121 226.625 34.426C226.208 34.4869 225.789 34.536 225.367 34.566C225.185 34.5788 225.002 34.5807 224.82 34.5878C224.478 34.6012 224.136 34.608 223.792 34.6006C223.592 34.5963 223.392 34.5859 223.191 34.5745C222.856 34.5555 222.521 34.5263 222.185 34.4868C221.987 34.4638 221.789 34.4409 221.591 34.4108C221.232 34.3561 220.873 34.2846 220.514 34.2062C220.49 34.2011 220.467 34.198 220.443 34.1928C219.063 38.2446 217.657 42.2877 216.225 46.3222C217.971 44.7472 220.02 43.5467 222.245 42.7944C224.47 42.0421 226.825 41.7539 229.165 41.9474C231.505 42.1409 233.781 42.8121 235.853 43.9197C237.926 45.0274 239.75 46.5481 241.216 48.3887L235.253 55.0035L243.326 51.7706C245.287 55.8956 245.535 60.6327 244.016 64.9412C243.49 66.4551 242.752 67.8866 241.825 69.1929C239.831 72.0231 237.034 74.1868 233.799 75.4033C230.564 76.6198 227.039 76.8329 223.681 76.0151C220.323 75.1972 217.288 73.3861 214.969 70.8167C212.65 68.2473 211.154 65.0381 210.675 61.6055C210.524 62.012 210.377 62.4236 210.225 62.8297C208.649 67.0351 206.688 72.2688 202.751 76.0527C200.082 78.6174 196.798 80.2446 193.647 81.6202C191.595 82.5159 189.517 83.344 187.41 84.1045C185.069 85.5287 182.423 86.3745 179.692 86.572C176.369 87.4981 173.004 88.2712 169.607 88.8681L167.489 89.2344C165.585 89.5615 163.634 89.8983 161.697 90.2863C161.975 90.3693 162.255 90.4485 162.532 90.5464C165.984 91.765 168.96 94.0529 171.03 97.0795C173.1 100.106 174.157 103.715 174.049 107.384L160.771 111.472L172.786 113.386C171.687 116.096 169.921 118.482 167.653 120.321C165.386 122.161 162.69 123.394 159.819 123.905C156.948 124.416 153.994 124.189 151.234 123.244C148.474 122.3 145.997 120.669 144.036 118.504C144.158 118.914 144.28 119.324 144.403 119.732C144.647 120.544 144.889 121.352 145.121 122.152C148.283 133.05 146.922 141.622 141.289 146.289L138.233 142.578C143.715 138.034 142.014 128.673 140.513 123.496C140.285 122.711 140.047 121.918 139.807 121.12C137.748 114.258 135.414 106.479 138.437 99.331C142.994 88.5576 156.126 86.3019 166.678 84.4894Z" fill="#F2F2F2"/>
<path d="M162.787 147.687H69.7535C66.7027 147.687 63.7768 146.471 61.6196 144.307C59.4623 142.143 58.2504 139.208 58.2504 136.148V93.3902C58.2504 92.7693 58.3765 92.1549 58.6209 91.5845C58.8654 91.014 59.2232 90.4996 59.6724 90.0724L108.971 43.1943C110.942 41.3201 113.554 40.2753 116.27 40.2753C118.986 40.2753 121.598 41.3201 123.569 43.1943L170.573 87.8901C171.747 89.0066 172.682 90.3514 173.321 91.8424C173.96 93.3334 174.29 94.9394 174.29 96.5624V136.148C174.29 137.663 173.992 139.164 173.414 140.564C172.836 141.964 171.989 143.236 170.921 144.307C169.852 145.379 168.584 146.229 167.189 146.809C165.793 147.389 164.297 147.687 162.787 147.687V147.687Z" fill="#6EABF2"/>
<path opacity="0.1" d="M58.2504 94.0922H173.323V140.719C173.323 142.567 172.591 144.34 171.288 145.646C169.986 146.953 168.219 147.687 166.377 147.687H65.1964C63.3542 147.687 61.5874 146.953 60.2848 145.646C58.9822 144.34 58.2504 142.567 58.2504 140.719V94.0922V94.0922Z" fill="black"/>
<path d="M152.609 57.3518H79.6889C76.1933 57.3518 73.3596 60.1945 73.3596 63.701V136.852C73.3596 140.358 76.1933 143.201 79.6889 143.201H152.609C156.105 143.201 158.939 140.358 158.939 136.852V63.701C158.939 60.1945 156.105 57.3518 152.609 57.3518Z" fill="#FCBC04"/>
<path opacity="0.1" d="M158.939 96.0203V143.201H73.3595V96.0203L116.149 116.767L158.939 96.0203Z" fill="black"/>
<path d="M116.149 119.435L61.3221 92.8514C60.983 92.6869 60.6078 92.6116 60.2317 92.6323C59.8556 92.6531 59.4909 92.7694 59.1719 92.9702C58.8528 93.171 58.5898 93.4497 58.4075 93.7804C58.2252 94.111 58.1295 94.4827 58.1295 94.8605V140.598C58.1295 141.513 58.3092 142.419 58.6582 143.265C59.0073 144.11 59.519 144.878 60.164 145.525C60.8089 146.172 61.5747 146.685 62.4174 147.036C63.2601 147.386 64.1634 147.566 65.0755 147.566H167.223C168.135 147.566 169.038 147.386 169.881 147.036C170.724 146.685 171.489 146.172 172.134 145.525C172.779 144.878 173.291 144.11 173.64 143.265C173.989 142.419 174.169 141.513 174.169 140.598V95.644C174.169 95.183 174.052 94.7294 173.83 94.326C173.607 93.9225 173.286 93.5823 172.897 93.3373C172.508 93.0923 172.063 92.9504 171.604 92.9251C171.145 92.8997 170.687 92.9917 170.273 93.1923L116.149 119.435Z" fill="#6EABF2"/>
<path d="M104.666 65.2334H80.733V68.6286H104.666V65.2334Z" fill="#F2F2F2"/>
<path d="M149.873 77.6015H78.7991V79.5416H149.873V77.6015Z" fill="#F2F2F2"/>
<path d="M149.873 84.1493H78.7991V86.0894H149.873V84.1493Z" fill="#F2F2F2"/>
<path d="M149.873 90.6971H78.7991V92.6372H149.873V90.6971Z" fill="#F2F2F2"/>
<path opacity="0.1" d="M14.7356 147.566H213.936" stroke="#062228" stroke-miterlimit="10"/>
<path d="M0 117.703C0 132.002 8.94194 143.572 19.9925 143.572Z" fill="#6EABF2"/>
<path d="M19.9924 143.572C19.9924 129.113 29.9711 117.413 42.3029 117.413Z" fill="#FCBC04"/>
<path d="M7.24365 119C7.24365 132.582 12.9458 143.572 19.9925 143.572Z" fill="#FCBC04"/>
<path d="M19.9924 143.572C19.9924 125.097 31.5262 110.146 45.7798 110.146Z" fill="#6EABF2"/>
<path d="M15.7866 143.755C15.7866 143.755 18.6219 143.667 19.4764 143.057C20.3308 142.446 23.8377 141.717 24.0497 142.696C24.2616 143.675 28.3105 147.565 25.1095 147.591C21.9086 147.617 17.6719 147.091 16.819 146.57C15.9662 146.048 15.7866 143.755 15.7866 143.755Z" fill="#A8A8A8"/>
<path opacity="0.2" d="M25.1667 147.25C21.9657 147.276 17.729 146.75 16.8762 146.229C16.2267 145.832 15.9679 144.408 15.8813 143.751C15.8213 143.753 15.7866 143.755 15.7866 143.755C15.7866 143.755 15.9662 146.048 16.819 146.57C17.6719 147.091 21.9086 147.617 25.1095 147.591C26.0336 147.583 26.3527 147.254 26.3352 146.765C26.2068 147.06 25.8544 147.245 25.1667 147.25Z" fill="black"/>
<path d="M173.99 39.4737C173.844 40.7722 172.857 41.8183 172.491 43.0724C171.94 44.9599 172.893 46.9855 174.195 48.4556C175.246 49.6292 176.518 50.582 177.939 51.2587C179.36 51.9353 180.9 52.3224 182.471 52.3975C182.932 52.4382 183.397 52.3873 183.839 52.2479C184.234 52.0886 184.589 51.8451 184.88 51.5342C185.861 50.5462 186.388 49.1773 186.597 47.799C186.807 46.4206 186.726 45.0164 186.644 43.6244C186.644 43.3367 186.592 43.0514 186.49 42.7825C186.356 42.5263 186.172 42.2997 185.95 42.1162C185.243 41.4664 184.466 40.8996 183.631 40.4268C183.254 40.2572 182.922 40.0019 182.66 39.6811C182.502 39.4062 182.4 39.1028 182.36 38.7883L182.103 37.479C182.058 37.1017 181.929 36.7393 181.727 36.4177C181.275 35.8054 180.409 35.7221 179.65 35.6922L176.869 35.5828C176.004 35.5487 174.864 35.2998 174.019 35.4703C173.23 35.6294 173.492 36.3585 173.636 37.0224C173.843 37.8239 173.962 38.646 173.99 39.4737V39.4737Z" fill="#A0616A"/>
<path opacity="0.1" d="M173.99 39.4737C173.844 40.7722 172.857 41.8183 172.491 43.0724C171.94 44.9599 172.893 46.9855 174.195 48.4556C175.246 49.6292 176.518 50.582 177.939 51.2587C179.36 51.9353 180.9 52.3224 182.471 52.3975C182.932 52.4382 183.397 52.3873 183.839 52.2479C184.234 52.0886 184.589 51.8451 184.88 51.5342C185.861 50.5462 186.388 49.1773 186.597 47.799C186.807 46.4206 186.726 45.0164 186.644 43.6244C186.644 43.3367 186.592 43.0514 186.49 42.7825C186.356 42.5263 186.172 42.2997 185.95 42.1162C185.243 41.4664 184.466 40.8996 183.631 40.4268C183.254 40.2572 182.922 40.0019 182.66 39.6811C182.502 39.4062 182.4 39.1028 182.36 38.7883L182.103 37.479C182.058 37.1017 181.929 36.7393 181.727 36.4177C181.275 35.8054 180.409 35.7221 179.65 35.6922L176.869 35.5828C176.004 35.5487 174.864 35.2998 174.019 35.4703C173.23 35.6294 173.492 36.3585 173.636 37.0224C173.843 37.8239 173.962 38.646 173.99 39.4737V39.4737Z" fill="black"/>
<path d="M191.683 97.9215C191.289 102.256 190.895 106.589 190.501 110.922C190.192 114.332 189.878 117.756 189.273 121.122C189.064 122.282 188.819 123.436 188.528 124.58C187.72 127.756 186.548 130.86 186.17 134.116C186.158 134.21 186.148 134.306 186.138 134.402C186.096 135.122 185.96 135.833 185.734 136.518C185.545 137.015 185.255 137.468 185.05 137.96C184.642 138.942 184.588 140.028 184.538 141.092C183.103 140.282 181.532 139.744 179.903 139.503C179.117 139.385 178.241 139.301 177.706 138.712C177.113 138.061 177.179 137.065 177.278 136.191C177.591 133.476 177.902 130.762 178.213 128.049C178.315 126.882 178.513 125.726 178.805 124.592C178.912 124.214 179.041 123.843 179.173 123.472C179.354 122.96 179.537 122.449 179.674 121.924C179.872 121.076 180.01 120.215 180.088 119.347C180.409 116.616 180.795 113.891 181.133 111.162L181.151 111.018C181.658 106.881 182.045 102.725 181.933 98.5584C181.917 97.9415 181.891 97.3246 181.851 96.7057C181.796 95.8093 181.714 95.3342 182.454 94.7732C183.272 94.1543 184.349 93.7211 185.284 93.3158C185.788 93.0962 191.332 91.1217 191.462 91.555C191.722 92.479 191.858 93.4337 191.868 94.3938C191.872 95.5723 191.81 96.75 191.683 97.9215Z" fill="#605D82"/>
<path opacity="0.1" d="M189.273 121.122C189.064 122.282 188.819 123.436 188.528 124.579C187.72 127.756 186.548 130.86 186.17 134.116C186.158 134.21 186.148 134.306 186.138 134.402C183.667 130.86 181.585 127.051 179.173 123.471C179.354 122.96 179.537 122.449 179.674 121.924C179.872 121.076 180.011 120.215 180.088 119.347C180.409 116.616 180.795 113.891 181.133 111.162L181.151 111.018C181.293 111.597 181.495 112.16 181.754 112.697C183.374 115.999 187.223 117.668 189.106 120.828C189.163 120.926 189.219 121.024 189.273 121.122Z" fill="black"/>
<path d="M169.216 92.086C169.298 94.7344 169.721 97.3589 170.142 99.9746L171.012 105.371C171.489 108.325 171.985 111.339 173.378 113.984C174.42 115.963 175.922 117.652 177.28 119.428C180.62 123.792 183.129 128.737 186.296 133.229C187.217 134.535 188.533 135.948 190.104 135.675C191.135 135.496 191.883 134.635 192.694 133.971C193.649 133.188 194.801 132.615 195.553 131.634C196.305 130.653 196.452 129.022 195.433 128.324C195.065 128.119 194.674 127.958 194.268 127.845C192.689 127.243 191.667 125.696 191.016 124.132C190.366 122.568 189.972 120.886 189.106 119.431C187.223 116.271 183.374 114.602 181.753 111.299C180.846 109.449 180.759 107.317 180.69 105.256L180.513 100.002C180.494 99.4279 180.479 98.8305 180.711 98.3052C181.331 96.9069 183.203 96.7766 184.718 96.5993C186.438 96.3972 188.104 95.8699 189.628 95.0454C190.501 94.5726 191.353 93.9699 191.82 93.092C192.246 92.2911 192.305 91.3517 192.355 90.4452L192.879 80.9248C192.925 80.1057 192.966 79.2588 192.678 78.4909C191.955 76.5629 189.528 75.9328 187.477 76.0248C183.66 76.196 180.136 77.8432 176.537 78.9556C175.645 79.2377 174.74 79.4745 173.825 79.6652C173.017 79.8278 172.04 79.7603 171.269 80.0208C169.899 80.4842 169.934 83.4898 169.74 84.7366C169.339 87.1648 169.163 89.6252 169.216 92.086V92.086Z" fill="#605D82"/>
<path d="M189.585 136.074C189.922 136.415 190.032 136.914 190.119 137.385C190.605 140 190.858 142.653 190.875 145.313C190.852 145.561 190.902 145.811 191.017 146.032C191.112 146.163 191.24 146.267 191.389 146.331C192.362 146.796 193.491 146.148 194.302 145.436C195.804 144.115 197.076 142.343 197.161 140.34C197.146 139.825 197.164 139.308 197.215 138.795C197.347 138.041 197.786 137.384 198.173 136.725C198.831 135.602 199.362 134.408 199.755 133.167C199.903 132.7 200.001 132.113 199.637 131.787C199.508 131.686 199.361 131.609 199.204 131.562L194.809 129.925C194.428 129.783 193.481 132.225 193.33 132.492C192.962 133.145 192.597 133.515 191.858 133.666C191.105 133.82 190.208 133.599 189.505 133.976C188.316 134.614 188.912 135.393 189.585 136.074Z" fill="#535070"/>
<path d="M182.804 137.581C182.722 137.418 182.609 137.273 182.47 137.156C182.266 137.026 182.035 136.947 181.795 136.926C180.958 136.783 179.967 136.689 179.389 137.313C178.848 137.898 178.941 138.851 178.488 139.507C178.345 139.715 178.151 139.886 178.027 140.106C177.872 140.442 177.803 140.811 177.824 141.18C177.801 142.197 177.777 143.217 177.847 144.232C177.906 145.082 178.049 145.974 178.579 146.64C179.431 147.71 180.966 147.864 182.329 147.933L183.432 147.99C183.736 148.027 184.045 147.998 184.337 147.906C184.518 147.823 184.68 147.703 184.814 147.555C184.948 147.407 185.051 147.234 185.117 147.045C185.691 145.613 184.782 144.07 184.221 142.632C183.577 140.979 183.693 139.144 182.804 137.581Z" fill="#535070"/>
<path d="M173.67 32.157C173.656 32.0118 173.678 31.8654 173.732 31.7301C173.894 31.4434 174.316 31.5214 174.634 31.602C175.915 31.9258 177.264 31.6327 178.582 31.7083C179.901 31.784 181.386 32.4451 181.651 33.7429C182.608 33.0623 183.433 32.2121 184.085 31.234C184.451 30.6847 184.77 30.0556 184.72 29.3968C184.648 28.4467 183.853 27.7361 183.117 27.1335L180.924 25.3372C180.636 25.0718 180.304 24.8597 179.942 24.7109C179.435 24.5372 178.883 24.6199 178.348 24.6203C176.751 24.6213 175.049 23.8924 173.629 24.6246C173.035 24.9305 172.589 25.4547 172.159 25.9658L170.201 28.2905C170.054 28.4386 169.946 28.6218 169.888 28.8228C169.832 29.1066 169.978 29.3866 170.028 29.6713C170.121 30.1907 169.898 30.7449 170.069 31.2437C170.354 32.0716 171.356 32.1888 171.969 32.6635C172.197 32.8404 172.555 33.44 172.827 33.4326C173.318 33.4194 173.657 32.5395 173.67 32.157Z" fill="#3F3D56"/>
<path d="M176.992 39.0094C180.454 39.0094 183.26 36.1939 183.26 32.7207C183.26 29.2476 180.454 26.4321 176.992 26.4321C173.529 26.4321 170.723 29.2476 170.723 32.7207C170.723 36.1939 173.529 39.0094 176.992 39.0094Z" fill="#A0616A"/>
<path d="M178.46 46.4836C178.247 45.8725 177.846 45.3452 177.314 44.9782C176.783 44.6112 176.149 44.4237 175.504 44.4427C175.319 44.4772 175.128 44.453 174.958 44.3735C174.862 44.2994 174.785 44.2029 174.734 44.0924C174.353 43.4048 174.046 42.6781 173.82 41.9248C173.72 41.5919 173.583 41.1995 173.248 41.1129C173.109 41.0947 172.967 41.1147 172.839 41.1708C172.71 41.2269 172.599 41.3169 172.518 41.4314C172.358 41.6617 172.184 41.8813 171.996 42.0889C171.208 42.7961 169.81 42.1515 168.973 42.8004C168.837 42.9063 168.724 43.0421 168.58 43.1385C168.437 43.2253 168.282 43.2919 168.12 43.3365C166.504 43.8657 164.92 44.4881 163.375 45.2006C163.932 48.5634 164.503 51.9849 165.807 55.1325C166.428 56.6304 167.132 58.0975 167.629 59.6411C168.731 63.0614 168.78 66.721 168.792 70.3154C168.8 72.7754 168.788 75.288 167.995 77.6157C167.781 78.1302 167.631 78.6687 167.547 79.2194C167.499 79.7741 167.66 80.3857 168.108 80.7143C168.368 80.8847 168.665 80.9894 168.974 81.0194C170.348 81.2217 171.734 80.8547 173.088 80.5402C176.716 79.6973 180.417 79.215 184.11 78.7339L190.299 77.9278C190.742 77.8976 191.176 77.7851 191.579 77.5959C192.711 76.9739 192.819 75.265 192.116 74.1788C191.779 73.6581 191.303 73.2309 191.02 72.6789C190.736 72.1268 190.712 71.3548 191.2 70.9724C192.192 70.1946 191.896 68.7515 191.943 67.4894C192.076 63.9602 192.058 60.4297 191.89 56.8978C191.84 56.1667 191.828 55.4335 191.855 54.7012C191.965 53.4602 192.193 52.2327 192.537 51.0356L194.418 43.608C193.926 42.8293 192.986 42.3352 192.095 42.1109C191.204 41.8866 190.276 41.8205 189.398 41.5478C187.6 40.989 186 39.5708 184.123 39.703C183.981 39.7055 183.841 39.7398 183.714 39.8031C183.29 40.0438 183.357 40.6559 183.33 41.1433C183.27 42.2217 182.48 43.1231 181.607 43.755C180.733 44.3869 179.736 44.8477 178.934 45.5684C178.792 45.6758 178.676 45.8137 178.594 45.9721C178.512 46.1305 178.466 46.3053 178.46 46.4836V46.4836Z" fill="#6EABF2"/>
<path d="M153.62 53.529C153.205 53.7996 152.763 54.0276 152.302 54.2096C151.85 54.3444 151.423 54.5521 151.039 54.8245C150.861 54.9785 150.712 55.1628 150.599 55.3689C150.387 55.7465 150.28 56.1742 150.289 56.6075C150.297 57.0408 150.422 57.4638 150.649 57.8323C150.877 58.2008 151.198 58.5014 151.581 58.7026C151.964 58.9037 152.393 58.9982 152.825 58.9761C153.398 58.9116 153.955 58.7449 154.47 58.4838L158.892 56.5618C159.64 56.2365 160.449 55.8552 160.802 55.118C160.844 55.0492 160.859 54.9679 160.846 54.8888C160.81 54.8052 160.745 54.7372 160.664 54.6973C159.667 54.0475 158.794 53.2225 158.089 52.2619C157.908 52.0148 157.686 51.4314 157.43 51.2833C156.494 50.7426 154.369 53.0413 153.62 53.529Z" fill="#A0616A"/>
<path d="M200.889 51.9518L202.519 53.8199C202.869 54.2209 203.219 54.6224 203.538 55.0486C204.322 56.1316 204.95 57.3193 205.405 58.577C205.76 59.5097 206.054 60.5033 205.93 61.4937C205.848 62.0015 205.711 62.4988 205.522 62.977C205.223 63.8969 204.853 64.7917 204.415 65.6533C204.046 66.3079 203.629 66.9342 203.168 67.5272C201.906 69.2052 200.525 70.7899 199.036 72.2688C198.478 72.8222 198.245 73.7171 198.002 74.4652C197.555 75.845 196.49 76.9197 195.46 77.9387C195.129 78.2892 194.764 78.6049 194.369 78.8809C193.777 79.2631 193.086 79.4606 192.383 79.4484C192.075 79.4505 191.77 79.3872 191.488 79.2626C190.783 78.9269 190.425 78.1096 190.352 77.3306C190.286 76.6237 190.404 75.9117 190.695 75.2642C191.63 73.1855 194.032 72.2847 195.73 70.768C196.726 69.8787 197.487 68.7615 198.238 67.6565C198.748 66.9665 199.174 66.2178 199.506 65.4262C199.886 64.4112 199.738 63.2097 200.069 62.1779C200.209 61.7418 200.458 61.348 200.609 60.9155C200.76 60.4829 200.797 59.9694 200.534 59.5951C200.335 59.3572 200.082 59.1712 199.796 59.0531C198.711 58.5008 197.496 57.7901 197.289 56.5877C197.206 55.921 197.38 55.2476 197.775 54.7048C198.168 54.1692 198.627 53.686 199.142 53.2668C199.617 52.846 200.414 52.3726 200.889 51.9518Z" fill="#A0616A"/>
<path d="M152.574 56.1366C152.286 55.5533 151.926 54.9582 151.345 54.6682C151.064 54.5455 150.76 54.4816 150.453 54.4803C150.146 54.479 149.842 54.5404 149.559 54.6606C148.996 54.9042 148.469 55.2241 147.992 55.6113L146.587 56.6503C146.269 56.8599 145.987 57.121 145.753 57.4228C145.531 57.7889 145.384 58.1952 145.319 58.6186C145.074 59.584 144.999 60.5851 145.098 61.5764C145.321 63.1659 146.276 64.5536 147.327 65.7635C147.984 66.5196 148.796 67.2825 149.795 67.3148C150.226 67.3287 150.706 67.1581 150.886 66.7644C150.948 66.6082 150.981 66.442 150.983 66.2739C151.091 64.501 150.459 62.7692 149.721 61.1543C149.486 60.7314 149.347 60.2616 149.315 59.7786C149.309 59.6973 149.33 59.6165 149.375 59.5482C149.438 59.4818 149.523 59.4401 149.615 59.4307C150.624 59.2304 152.362 60.0168 153.07 58.8927C153.529 58.164 152.9 56.7974 152.574 56.1366Z" fill="#A0616A"/>
<path d="M173.341 30.1781C173.328 30.0329 173.349 29.8866 173.403 29.7513C173.565 29.4646 173.987 29.5426 174.305 29.6231C175.586 29.947 176.935 29.6538 178.253 29.7295C179.572 29.8052 181.057 30.4663 181.322 31.7641C182.279 31.0835 183.104 30.2333 183.756 29.2552C184.122 28.7059 184.441 28.0768 184.391 27.418C184.319 26.4679 183.524 25.7573 182.789 25.1547L180.595 23.3584C180.307 23.093 179.975 22.8809 179.613 22.732C179.107 22.5584 178.554 22.6411 178.019 22.6415C176.422 22.6425 174.72 21.9136 173.3 22.6458C172.707 22.9517 172.26 23.4759 171.83 23.987L169.872 26.3117C169.725 26.4598 169.617 26.643 169.559 26.844C169.503 27.1278 169.649 27.4078 169.699 27.6925C169.792 28.2119 169.569 28.7661 169.74 29.2649C170.025 30.0928 171.027 30.21 171.64 30.6847C171.868 30.8616 172.226 31.4611 172.498 31.4538C172.989 31.4406 173.328 30.5607 173.341 30.1781Z" fill="#3F3D56"/>
<path d="M160.027 47.4121C159.773 47.5758 159.551 47.7833 159.37 48.0249C159.14 48.3735 159.094 48.8135 158.896 49.1816C158.474 49.9692 157.486 50.2493 156.869 50.8955C156.771 50.9843 156.703 51.1014 156.674 51.2307C156.671 51.4061 156.73 51.5769 156.84 51.7132L159.813 56.4013C160.803 56.4888 161.752 55.8667 162.742 55.9493C163.112 55.9801 163.49 56.1082 163.845 55.9986C164.099 55.8857 164.337 55.7398 164.552 55.5645C165.143 55.1898 165.93 55.1462 166.426 54.6518C166.901 54.1773 166.962 53.435 166.956 52.7622C166.964 52.1779 166.905 51.5946 166.779 51.0239C166.342 49.2244 164.97 47.8435 164.11 46.2495C163.691 45.4735 163.463 45.0192 162.577 45.552C161.686 46.0876 160.865 46.7971 160.027 47.4121Z" fill="#6EABF2"/>
<path d="M196.13 45.0413C196.688 45.4052 197.192 45.8478 197.625 46.3554C198.078 46.9411 198.334 47.658 198.769 48.2573C199.191 48.8381 199.765 49.2879 200.243 49.8228C200.969 50.6339 201.46 51.6235 201.942 52.5998C200.764 54.1415 199.479 55.5983 198.097 56.9594C197.943 57.1413 197.741 57.2749 197.513 57.3445C197.359 57.3609 197.202 57.3387 197.058 57.2798C196.914 57.2209 196.787 57.1271 196.688 57.0069C196.474 56.7816 196.322 56.5038 196.117 56.2698C195.634 55.7699 194.991 55.4576 194.3 55.388C193.616 55.3217 192.927 55.3122 192.241 55.3596C192.09 55.3764 191.938 55.3507 191.801 55.2854C191.699 55.215 191.617 55.1201 191.561 55.0094C190.756 53.6355 191.015 51.9105 191.299 50.3426L191.951 46.7449C192.045 46.0578 192.227 45.3857 192.493 44.7453C192.74 44.2162 193.292 43.319 193.97 43.4774C194.654 43.6371 195.554 44.626 196.13 45.0413Z" fill="#6EABF2"/>
<path d="M76.8651 68.6647C82.3391 68.6647 86.7767 64.205 86.7767 58.7037C86.7767 53.2024 82.3391 48.7427 76.8651 48.7427C71.391 48.7427 66.9534 53.2024 66.9534 58.7037C66.9534 64.205 71.391 68.6647 76.8651 68.6647Z" fill="white"/>
<path d="M76.865 47.0451C74.5221 47.0451 72.2319 47.742 70.2839 49.0477C68.3359 50.3535 66.8176 52.2094 65.921 54.3807C65.0244 56.552 64.7898 58.9413 65.2469 61.2464C65.704 63.5515 66.8322 65.6689 68.4888 67.3307C70.1455 68.9926 72.2562 70.1244 74.554 70.5829C76.8518 71.0414 79.2336 70.8061 81.3981 69.9067C83.5626 69.0073 85.4127 67.4842 86.7143 65.53C88.0159 63.5759 88.7107 61.2784 88.7107 58.9281C88.7015 55.7794 87.4505 52.7622 85.231 50.5357C83.0115 48.3092 80.0038 47.0543 76.865 47.0451V47.0451ZM74.4332 65.2639L68.3623 59.1738L70.0651 57.4656L74.4389 61.8532L83.6706 52.5924L85.3734 54.3006L74.4332 65.2639L74.4332 65.2639Z" fill="#6EABF2"/>
</g>
<defs>
<clipPath id="clip0_2_1193">
<rect width="245" height="148" fill="white"/>
</clipPath>
</defs>
</svg>
